<svg xmlns="http://www.w3.org/2000/svg" version="1.1" xmlns:xlink="http://www.w3.org/1999/xlink" xmlns:svgjs="http://svgjs.dev/svgjs" viewBox="0 0 800 800"><defs><filter id="uuunion-blur" x="-100%" y="-100%" width="400%" height="400%" color-interpolation-filters="sRGB">
        <feGaussianBlur in="SourceGraphic" stdDeviation="7.5 0" result="blur"></feGaussianBlur>
        <feDropShadow stdDeviation="80" in="blur" dx="65" dy="65" flood-color="hsl(230, 15%, 25%)" flood-opacity="0" x="0%" y="0%" width="100%" height="100%"></feDropShadow>
      </filter><filter id="uuunion-blur2" x="-100%" y="-100%" width="400%" height="400%" color-interpolation-filters="sRGB">
        <feGaussianBlur in="SourceGraphic" stdDeviation="7.5 0" result="blur"></feGaussianBlur>
        <feDropShadow stdDeviation="80" in="blur" dx="-65" dy="-65" flood-color="hsl(230, 15%, 25%)" flood-opacity="0" x="0%" y="0%" width="100%" height="100%"></feDropShadow>
      </filter><linearGradient gradientTransform="rotate(25, 0.5, 0.5)" x1="50%" y1="0%" x2="50%" y2="100%" id="uuunion-grad"><stop stop-color="hsl(230, 55%, 70%)" offset="10%"></stop><stop stop-color="hsl(230, 15%, 25%)" offset="90%"></stop></linearGradient><linearGradient gradientTransform="rotate(135, 0.5, 0.5)" x1="50%" y1="0%" x2="50%" y2="100%" id="uuunion-grad2"><stop stop-color="hsl(230, 55%, 70%)" offset="25%"></stop><stop stop-color="hsl(230, 15%, 25%)" offset="100%"></stop></linearGradient><linearGradient gradientTransform="rotate(333, 0.5, 0.5)" x1="50%" y1="0%" x2="50%" y2="100%" id="uuunion-grad3"><stop stop-color="hsl(230, 55%, 70%)" offset="0%"></stop><stop stop-color="hsl(230, 15%, 25%)" offset="75%"></stop></linearGradient></defs><path d="M-80.41 -90.2Q-65.4 -86.83 -50.39 -81.68 -35.39 -76.08 -20.38 -71.51 -5.37 -69.16 9.63 -69.64 24.63 -72.84 39.64 -77.9 54.65 -83.52 69.65 -88.21 84.66 -90.75 99.67 -90.48 114.68 -87.47 129.68 -82.5 144.69 -76.87 159.7 -72.07 174.7 -69.33 189.71 -69.39 204.72 -72.22 219.72 -77.08 234.73 -82.71 249.74 -87.63 264.75 -90.55 279.75 -90.7 294.76 -88.06 309.77 -83.31 324.77 -77.69 339.78 -72.67 354.79 -69.57 369.79 -69.2 384.8 -71.65 399.81 -76.28 414.82 -81.89 429.82 -87 444.83 -90.28 459.84 -90.86 474.84 -88.61 489.85 -84.1 504.86 -78.51 519.86 -73.32 534.87 -69.87 549.88 -69.07 564.89 -71.13 579.89 -75.51 594.9 -81.06 609.91 -86.33 624.91 -89.95 639.92 -90.96 654.93 -89.1 669.93 -84.86 684.94 -79.35 699.95 -74 714.96 -70.23 729.96 -69 744.97 -70.66 759.98 -74.75 774.98 -80.22 789.99 -85.63 805 -89.56 820 -90.99 835.01 -89.55 850.02 -85.6 865.03 -80.19 880.03 -74.72 880.07 -59.81 880.09 -44.9 880.09 -29.99 880.06 -15.08 880.01 -0.17 879.96 14.73 879.92 29.64 879.9 44.55 879.9 59.46 879.93 74.37 879.97 89.28 880.03 104.19 880.07 119.1 880.09 134.01 880.09 148.92 880.06 163.83 880.02 178.74 879.97 193.65 879.92 208.56 879.9 223.47 879.9 238.38 879.92 253.29 879.97 268.2 880.02 283.11 880.06 298.02 880.09 312.93 880.09 327.84 880.07 342.75 880.03 357.66 879.98 372.57 879.93 387.48 879.9 402.39 879.9 417.3 879.92 432.21 879.96 447.12 880.01 462.03 880.06 476.94 880.09 491.85 880.09 506.76 880.07 521.67 880.03 536.58 879.98 551.49 879.94 566.4 879.9 581.31 879.9 596.22 879.91 611.13 879.95 626.04 880 640.95 880.05 655.86 880.08 670.77 880.09 685.68 880.08 700.59 880.04 715.5 879.99 730.41 879.94 745.32 879.91 760.23 879.9 775.14 879.91 790.05 879.95 804.97 880 819.88 880.04 834.79 880.08 849.7 880.09 864.61 880.08 879.52 865.07 880.01 850.05 880.5 835.03 880.86 820.02 880.99 805 880.86 789.98 880.51 774.97 880.02 759.95 879.52 744.93 879.15 729.92 879 714.9 879.11 699.89 879.45 684.87 879.94 669.85 880.44 654.84 880.82 639.82 880.99 624.8 880.9 609.79 880.57 594.77 880.09 579.75 879.59 564.74 879.19 549.72 879 534.7 879.07 519.69 879.39 504.67 879.86 489.65 880.37 474.64 880.78 459.62 880.98 444.61 880.93 429.59 880.63 414.57 880.17 399.56 879.66 384.54 879.24 369.52 879.01 354.51 879.05 339.49 879.33 324.47 879.79 309.46 880.3 294.44 880.73 279.42 880.97 264.41 880.95 249.39 880.69 234.38 880.24 219.36 879.73 204.34 879.29 189.33 879.03 174.31 879.03 159.29 879.27 144.28 879.71 129.26 880.22 114.24 880.67 99.23 880.95 84.21 880.97 69.19 880.74 54.18 880.32 39.16 879.8 24.14 879.34 9.13 879.05 -5.88 879.01 -20.89 879.22 -35.91 879.64 -50.93 880.15 -65.94 880.62 -80.96 880.92 -81.09 865.75 -80.94 850.57 -80.54 835.4 -80 820.23 -79.45 805.05 -79.05 789.88 -78.9 774.71 -79.03 759.53 -79.41 744.36 -79.95 729.18 -80.5 714.01 -80.92 698.84 -81.09 683.66 -80.98 668.49 -80.61 653.31 -80.08 638.14 -79.53 622.97 -79.1 607.79 -78.9 592.62 -78.99 577.44 -79.34 562.27 -79.87 547.1 -80.42 531.92 -80.87 516.75 -81.08 501.57 -81.02 486.4 -80.68 471.23 -80.16 456.05 -79.6 440.88 -79.15 425.71 -78.91 410.53 -78.96 395.36 -79.28 380.18 -79.78 365.01 -80.35 349.84 -80.82 334.66 -81.07 319.49 -81.04 304.31 -80.74 289.14 -80.25 273.97 -79.68 258.79 -79.2 243.62 -78.93 228.44 -78.93 213.27 -79.22 198.1 -79.7 182.92 -80.27 167.75 -80.76 152.57 -81.05 137.4 -81.07 122.23 -80.8 107.05 -80.33 91.88 -79.77 76.7 -79.26 61.53 -78.95 46.36 -78.92 31.18 -79.16 16.01 -79.62 0.84 -80.18 -14.33 -80.69 -29.5 -81.02 -44.68 -81.08 -59.85 -80.86 -75.02 -80.41 -90.2" fill="url(#uuunion-grad)"></path><path d="M-80.41 -90.2Q-80.86 -75.02 -81.08 -59.85 -81.02 -44.68 -80.69 -29.5 -80.18 -14.33 -79.62 0.84 -79.16 16.01 -78.92 31.18 -78.95 46.36 -79.26 61.53 -79.77 76.7 -80.33 91.88 -80.8 107.05 -81.07 122.23 -81.05 137.4 -80.76 152.57 -80.27 167.75 -79.7 182.92 -79.22 198.1 -78.93 213.27 -78.93 228.44 -79.2 243.62 -79.68 258.79 -80.25 273.97 -80.74 289.14 -81.04 304.31 -81.07 319.49 -80.82 334.66 -80.35 349.84 -79.78 365.01 -79.28 380.18 -78.96 395.36 -68.97 396.26 -58.98 397.61 -48.99 399.23 -39.01 400.95 -29.02 402.55 -19.03 403.85 -0.31 404.91 2.92 404.98 15.29 398.2 27.61 390.58 39.91 382.35 52.19 373.85 64.47 365.49 76.74 357.68 89.02 350.71 101.32 344.74 113.64 339.76 126 335.54 138.39 331.75 150.82 327.92 163.28 323.62 175.79 318.47 188.32 312.25 200.89 304.91 213.48 296.65 226.09 287.79 238.7 278.82 251.32 270.22 263.93 262.46 276.54 255.81 289.12 250.39 301.69 246.07 314.22 242.51 326.73 239.25 339.22 235.73 351.67 231.44 364.1 226.01 376.51 219.26 388.9 211.25 401.27 202.28 413.64 192.84 426.01 183.49 438.38 174.82 450.76 167.28 463.14 161.14 475.55 156.4 487.97 152.81 500.4 149.9 512.86 147.08 525.33 143.71 537.82 139.25 550.33 133.35 562.84 125.93 575.36 117.16 587.89 107.49 600.42 97.52 612.94 87.95 625.46 79.38 637.97 72.26 650.47 66.78 662.96 62.82 675.43 59.99 687.9 57.68 700.37 55.17 712.82 51.77 725.27 46.95 737.72 40.41 750.17 32.19 762.62 22.61 775.07 12.27 787.53 1.91 800 -7.72 800 -25.39 800 -43.06 800 -60.73 800 -78.4 800 -96.06 800 -113.73 800 -131.4 800 -149.07 785.11 -144.23 770.22 -138.29 755.33 -132.8 740.44 -129.16 725.56 -128.32 710.67 -130.5 695.78 -135.14 680.89 -141.03 666.01 -146.65 651.12 -150.55 636.23 -151.72 621.34 -149.87 606.45 -145.46 591.57 -139.64 576.68 -133.91 561.79 -129.75 546.9 -128.25 532.02 -129.77 517.13 -133.94 502.24 -139.67 487.35 -145.49 472.46 -149.89 457.58 -151.73 442.69 -150.53 427.8 -146.62 412.91 -140.99 398.03 -135.11 383.14 -130.48 368.25 -128.32 353.36 -129.17 338.48 -132.82 323.59 -138.33 308.7 -144.26 293.81 -149.09 278.92 -151.57 264.04 -151.06 249.15 -147.69 234.26 -142.33 219.37 -136.36 204.49 -131.34 189.6 -128.55 174.71 -128.72 159.82 -131.8 144.93 -137 130.05 -142.98 115.16 -148.18 100.27 -151.27 85.38 -151.44 70.5 -148.66 55.61 -143.64 40.72 -137.67 25.83 -132.31 10.94 -128.93 -3.93 -128.41 -18.82 -130.89 -33.71 -135.72 -48.6 -141.65 -63.48 -147.16 -78.37 -150.81 -93.26 -151.67 -108.15 -149.51 -123.03 -144.89 -133.04 -127.84 -116.3 -117.13 -107.31 -111.97 -98.34 -105.82 -89.38 -98.57 -80.41 -90.2" fill="url(#uuunion-grad2)" filter="url(#uuunion-blur)"></path><path d="M800 396.13Q809.98 395.29 819.97 395 829.96 395.29 839.95 396.14 849.94 397.45 859.92 399.05 869.91 400.77 879.9 402.39 879.9 417.3 879.92 432.21 879.96 447.12 880.01 462.03 880.06 476.94 880.09 491.85 880.09 506.76 880.07 521.67 880.03 536.58 879.98 551.49 879.94 566.4 879.9 581.31 879.9 596.22 879.91 611.13 879.95 626.04 880 640.95 880.05 655.86 880.08 670.77 880.09 685.68 880.08 700.59 880.04 715.5 879.99 730.41 879.94 745.32 879.91 760.23 879.9 775.14 879.91 790.05 879.95 804.97 880 819.88 880.04 834.79 880.08 849.7 880.09 864.61 880.08 879.52 866.3 879.97 852.52 880.43 838.74 880.79 824.96 880.98 811.18 880.95 797.4 880.71 783.62 880.31 769.84 879.84 756.06 879.41 742.28 879.1 728.49 879 714.71 879.11 700.93 879.42 687.15 879.86 673.37 880.33 659.59 880.72 645.81 880.95 632.03 880.98 618.25 880.78 604.47 880.41 590.69 879.95 576.91 879.5 563.13 879.16 549.35 879 535.56 879.06 521.78 879.33 508 879.75 494.22 880.22 480.44 880.64 466.66 880.92 452.88 880.99 439.1 880.85 425.32 880.51 411.54 880.06 397.76 879.6 383.98 879.22 370.2 879.02 356.42 879.03 342.63 879.25 328.85 879.64 315.07 880.11 301.29 880.55 287.51 880.87 273.73 880.99 259.95 880.9 246.17 880.6 232.39 880.18 218.61 879.71 204.83 879.3 191.05 879.05 177.27 879.01 163.48 879.18 149.7 879.54 135.92 880 122.14 880.45 108.36 880.81 94.58 880.98 80.8 880.94 67.02 880.69 53.24 880.28 39.46 879.81 25.68 879.39 4.95 874.11 -1.98 859.25 -1.86 849.37 -1.63 839.5 -1.33 829.62 -1 819.75 -0.26 804.93 0.63 800 13.27 793.82 25.87 787.6 38.42 781.31 50.93 774.95 63.4 768.53 75.83 762.1 88.22 755.7 100.58 749.4 112.92 743.22 125.24 737.19 137.56 731.27 149.89 725.41 162.22 719.53 174.58 713.56 186.96 707.4 199.37 701.02 211.81 694.41 224.28 687.63 236.79 680.76 249.34 673.91 261.91 667.22 274.5 660.78 287.11 654.66 299.74 648.86 312.37 643.32 325 637.92 337.62 632.51 350.23 626.92 362.83 621.01 375.4 614.68 387.95 607.94 400.48 600.84 412.98 593.52 425.46 586.18 437.92 579.02 450.36 572.23 462.79 565.94 475.21 560.17 487.62 554.87 500.04 549.88 512.46 544.97 524.89 539.9 537.33 534.44 549.78 528.41 562.25 521.75 574.74 514.5 587.23 506.84 599.75 499 612.27 491.28 624.8 483.96 637.34 477.26 649.88 471.29 662.42 466.02 674.96 461.3 687.49 456.87 700.02 452.38 712.54 447.51 725.05 441.99 737.55 435.65 750.05 428.49 762.54 420.65 775.03 412.4 793.75 400.11 800 396.13" fill="url(#uuunion-grad3)" filter="url(#uuunion-blur2)"></path></svg>