<svg xmlns="http://www.w3.org/2000/svg" version="1.1" xmlns:xlink="http://www.w3.org/1999/xlink" xmlns:svgjs="http://svgjs.dev/svgjs" viewBox="0 0 800 800"><defs><linearGradient x1="50%" y1="0%" x2="50%" y2="100%" id="ffflurry-grad" gradientTransform="rotate(270)"><stop stop-color="hsl(238, 82%, 13%)" stop-opacity="1" offset="0%"></stop><stop stop-color="hsl(335, 77%, 60%)" stop-opacity="1" offset="45%"></stop><stop stop-color="hsl(335, 77%, 80%)" stop-opacity="1" offset="100%"></stop></linearGradient></defs><rect width="100%" height="100%" fill="hsl(238, 82%, 13%)"></rect><g fill="url(#ffflurry-grad)"><rect width="53" height="2" x="44.5" y="223" rx="1" transform="rotate(45, 71, 224)" opacity="0.50"></rect><rect width="93" height="2" x="395.5" y="77" rx="1" transform="rotate(45, 442, 78)" opacity="0.27"></rect><rect width="120" height="2" x="669" y="337" rx="1" transform="rotate(45, 729, 338)" opacity="0.25"></rect><rect width="128" height="2" x="369" y="231" rx="1" transform="rotate(45, 433, 232)" opacity="0.60"></rect><rect width="129" height="2" x="219.5" y="417" rx="1" transform="rotate(45, 284, 418)" opacity="0.90"></rect><rect width="159" height="2" x="630.5" y="212" rx="1" transform="rotate(45, 710, 213)" opacity="0.27"></rect><rect width="192" height="2" x="234" y="274" rx="1" transform="rotate(45, 330, 275)" opacity="0.35"></rect><rect width="157" height="2" x="401.5" y="649" rx="1" transform="rotate(45, 480, 650)" opacity="0.32"></rect><rect width="105" height="2" x="548.5" y="617" rx="1" transform="rotate(45, 601, 618)" opacity="0.95"></rect><rect width="124" height="2" x="80" y="276" rx="1" transform="rotate(45, 142, 277)" opacity="0.40"></rect><rect width="162" height="2" x="524" y="500" rx="1" transform="rotate(45, 605, 501)" opacity="0.64"></rect><rect width="213" height="2" x="227.5" y="708" rx="1" transform="rotate(45, 334, 709)" opacity="0.46"></rect><rect width="105" height="2" x="441.5" y="483" rx="1" transform="rotate(45, 494, 484)" opacity="0.30"></rect><rect width="191" height="2" x="456.5" y="222" rx="1" transform="rotate(45, 552, 223)" opacity="0.41"></rect><rect width="49" height="2" x="217.5" y="201" rx="1" transform="rotate(45, 242, 202)" opacity="0.68"></rect><rect width="282" height="2" x="44" y="727" rx="1" transform="rotate(45, 185, 728)" opacity="0.31"></rect><rect width="109" height="2" x="-10.5" y="125" rx="1" transform="rotate(45, 44, 126)" opacity="0.55"></rect><rect width="131" height="2" x="-7.5" y="665" rx="1" transform="rotate(45, 58, 666)" opacity="0.46"></rect><rect width="145" height="2" x="487.5" y="37" rx="1" transform="rotate(45, 560, 38)" opacity="0.58"></rect><rect width="198" height="2" x="236" y="139" rx="1" transform="rotate(45, 335, 140)" opacity="0.41"></rect><rect width="111" height="2" x="676.5" y="67" rx="1" transform="rotate(45, 732, 68)" opacity="0.65"></rect><rect width="170" height="2" x="75" y="543" rx="1" transform="rotate(45, 160, 544)" opacity="0.85"></rect><rect width="250" height="2" x="590" y="701" rx="1" transform="rotate(45, 715, 702)" opacity="0.58"></rect><rect width="228" height="2" x="448" y="358" rx="1" transform="rotate(45, 562, 359)" opacity="0.48"></rect><rect width="107" height="2" x="41.5" y="42" rx="1" transform="rotate(45, 95, 43)" opacity="0.72"></rect><rect width="102" height="2" x="462" y="752" rx="1" transform="rotate(45, 513, 753)" opacity="0.13"></rect><rect width="99" height="2" x="114.5" y="403" rx="1" transform="rotate(45, 164, 404)" opacity="0.84"></rect><rect width="166" height="2" x="336" y="555" rx="1" transform="rotate(45, 419, 556)" opacity="0.32"></rect><rect width="113" height="2" x="255.5" y="547" rx="1" transform="rotate(45, 312, 548)" opacity="0.52"></rect><rect width="259" height="2" x="277.5" y="380" rx="1" transform="rotate(45, 407, 381)" opacity="0.58"></rect><rect width="82" height="2" x="192" y="307" rx="1" transform="rotate(45, 233, 308)" opacity="0.77"></rect><rect width="140" height="2" x="121" y="110" rx="1" transform="rotate(45, 191, 111)" opacity="0.82"></rect><rect width="83" height="2" x="249.5" y="39" rx="1" transform="rotate(45, 291, 40)" opacity="0.23"></rect><rect width="285" height="2" x="584.5" y="489" rx="1" transform="rotate(45, 727, 490)" opacity="0.46"></rect><rect width="62" height="2" x="578" y="115" rx="1" transform="rotate(45, 609, 116)" opacity="0.86"></rect><rect width="223" height="2" x="-62.5" y="405" rx="1" transform="rotate(45, 49, 406)" opacity="0.97"></rect></g></svg>